# xmcd CD database file
#
# Track frame offsets:
#	150
#	24876
#	55117
#	82294
#	102800
#	120475
#	150311
#	181324
#	226049
#
# Disc length: 3358 seconds
#
# Revision: 4
# Processed by: cddbd v1.4PL0 Copyright (c) Steve Scherf et al.
# Submitted via: CDex 1.50beta9
#
DISCID=5b0d1c09
DTITLE=Ben Harper - Cool Man
DYEAR=1997
DGENRE=Blues
TTITLE0=Excuse me mister
TTITLE1=Don't take that attitude to your grave
TTITLE2=Gold me
TTITLE3=Please me like you want to
TTITLE4=Burn one down
TTITLE5=Ground on down
TTITLE6=Like a king
TTITLE7=Breaking down ...arise
TTITLE8=It's so easy
EXTD=YEAR: 1997
EXTT0=
EXTT1=
EXTT2=
EXTT3=
EXTT4=
EXTT5=
EXTT6=
EXTT7=
EXTT8=
PLAYORDER=
